<svg width="91" height="91" viewBox="0 0 91 91" fill="none" xmlns="http://www.w3.org/2000/svg">
<g clip-path="url(#clip0_262_138)">
<path d="M0 21.6434C0 14.0675 0 10.2795 1.47437 7.38593C2.77125 4.84064 4.84064 2.77125 7.38593 1.47437C10.2795 0 14.0675 0 21.6434 0H68.5373C76.1132 0 79.9011 0 82.7947 1.47437C85.34 2.77125 87.4094 4.84064 88.7063 7.38593C90.1807 10.2795 90.1807 14.0675 90.1807 21.6434V68.5373C90.1807 76.1132 90.1807 79.9011 88.7063 82.7947C87.4094 85.34 85.34 87.4094 82.7947 88.7063C79.9011 90.1807 76.1132 90.1807 68.5373 90.1807H21.6434C14.0675 90.1807 10.2795 90.1807 7.38593 88.7063C4.84064 87.4094 2.77125 85.34 1.47437 82.7947C0 79.9011 0 76.1132 0 68.5373V21.6434Z" fill="#202020"/>
<g filter="url(#filter0_f_262_138)">
<circle cx="45.0904" cy="94.0464" r="61.2867" fill="black"/>
</g>
<path d="M68.452 35.3946L63.6249 32.1779C62.8242 29.6533 61.2403 27.4493 59.1028 25.8853C56.9654 24.3214 54.3854 23.4787 51.7369 23.4795H51.6766C44.8359 23.5127 39.269 29.1877 39.269 36.1322V40.2342L21.7372 61.2736L21.7164 61.2985C21.3252 61.7872 21.0798 62.3765 21.0086 62.9984C20.9374 63.6204 21.0433 64.2498 21.314 64.8143C21.5847 65.3787 22.0093 65.8553 22.5389 66.1891C23.0685 66.5229 23.6816 66.7005 24.3077 66.7012H42.5938C48.3235 66.6952 53.8168 64.4164 57.8683 60.3649C61.9198 56.3134 64.1986 50.8201 64.2047 45.0904V40.9926L68.452 38.1624C68.6801 38.0107 68.8671 37.8049 68.9964 37.5635C69.1257 37.3221 69.1934 37.0524 69.1934 36.7785C69.1934 36.5046 69.1257 36.2349 68.9964 35.9935C68.8671 35.7521 68.6801 35.5463 68.452 35.3946ZM45.5341 47.8167L33.0663 62.778C32.9282 62.9506 32.757 63.0939 32.5628 63.1995C32.3686 63.3051 32.1553 63.3709 31.9354 63.3931C31.7155 63.4153 31.4933 63.3934 31.2819 63.3287C31.0706 63.264 30.8742 63.1578 30.7044 63.0163C30.5346 62.8748 30.3947 62.7009 30.2929 62.5046C30.1911 62.3084 30.1295 62.0939 30.1116 61.8736C30.0937 61.6532 30.12 61.4316 30.1888 61.2215C30.2576 61.0114 30.3677 60.8172 30.5125 60.6502L42.9803 45.6888C43.1184 45.5163 43.2896 45.373 43.4838 45.2674C43.678 45.1617 43.8913 45.0959 44.1112 45.0737C44.3311 45.0515 44.5533 45.0734 44.7646 45.1382C44.976 45.2029 45.1724 45.3091 45.3422 45.4506C45.512 45.5921 45.6519 45.766 45.7537 45.9622C45.8555 46.1584 45.9171 46.373 45.935 46.5933C45.9529 46.8136 45.9266 47.0353 45.8578 47.2454C45.7889 47.4554 45.6789 47.6496 45.5341 47.8167ZM53.3992 36.7785C52.906 36.7785 52.4239 36.6322 52.0139 36.3583C51.6038 36.0843 51.2842 35.6948 51.0955 35.2392C50.9067 34.7835 50.8574 34.2822 50.9536 33.7985C51.0498 33.3148 51.2873 32.8704 51.636 32.5217C51.9847 32.173 52.4291 31.9355 52.9128 31.8393C53.3965 31.7431 53.8978 31.7924 54.3535 31.9812C54.8091 32.1699 55.1986 32.4895 55.4725 32.8996C55.7465 33.3096 55.8928 33.7918 55.8928 34.2849C55.8928 34.9463 55.6301 35.5805 55.1624 36.0481C54.6948 36.5158 54.0606 36.7785 53.3992 36.7785Z" fill="white"/>
</g>
<path d="M21.6436 0.1875H68.5371C72.328 0.1875 75.1601 0.187598 77.4062 0.371094C79.6501 0.554422 81.2932 0.920308 82.709 1.6416C85.2189 2.92048 87.2602 4.96174 88.5391 7.47168C89.2604 8.88749 89.6262 10.5306 89.8096 12.7744C89.9931 15.0206 89.9932 17.8527 89.9932 21.6436V68.5371C89.9932 72.328 89.9931 75.1601 89.8096 77.4062C89.6262 79.6501 89.2604 81.2932 88.5391 82.709C87.2602 85.2189 85.2189 87.2602 82.709 88.5391C81.2932 89.2604 79.6501 89.6262 77.4062 89.8096C75.1601 89.9931 72.3279 89.9932 68.5371 89.9932H21.6436C17.8527 89.9932 15.0206 89.9931 12.7744 89.8096C10.5306 89.6262 8.88749 89.2604 7.47168 88.5391C4.96174 87.2602 2.92048 85.2189 1.6416 82.709C0.920308 81.2932 0.554422 79.6501 0.371094 77.4062C0.187598 75.1601 0.1875 72.3279 0.1875 68.5371V21.6436C0.1875 17.8527 0.187598 15.0206 0.371094 12.7744C0.554422 10.5306 0.920308 8.88749 1.6416 7.47168C2.92048 4.96174 4.96174 2.92048 7.47168 1.6416C8.88749 0.920308 10.5306 0.554422 12.7744 0.371094C15.0206 0.187598 17.8527 0.1875 21.6436 0.1875Z" stroke="black" stroke-opacity="0.07" stroke-width="0.375753"/>
<defs>
<filter id="filter0_f_262_138" x="-41.6656" y="7.29044" width="173.512" height="173.512" filterUnits="userSpaceOnUse" color-interpolation-filters="sRGB">
<feFlood flood-opacity="0" result="BackgroundImageFix"/>
<feBlend mode="normal" in="SourceGraphic" in2="BackgroundImageFix" result="shape"/>
<feGaussianBlur stdDeviation="12.7347" result="effect1_foregroundBlur_262_138"/>
</filter>
<clipPath id="clip0_262_138">
<path d="M0 21.6434C0 14.0675 0 10.2795 1.47437 7.38593C2.77125 4.84064 4.84064 2.77125 7.38593 1.47437C10.2795 0 14.0675 0 21.6434 0H68.5373C76.1132 0 79.9011 0 82.7947 1.47437C85.34 2.77125 87.4094 4.84064 88.7063 7.38593C90.1807 10.2795 90.1807 14.0675 90.1807 21.6434V68.5373C90.1807 76.1132 90.1807 79.9011 88.7063 82.7947C87.4094 85.34 85.34 87.4094 82.7947 88.7063C79.9011 90.1807 76.1132 90.1807 68.5373 90.1807H21.6434C14.0675 90.1807 10.2795 90.1807 7.38593 88.7063C4.84064 87.4094 2.77125 85.34 1.47437 82.7947C0 79.9011 0 76.1132 0 68.5373V21.6434Z" fill="white"/>
</clipPath>
</defs>
</svg>
